<svg xmlns="http://www.w3.org/2000/svg" width="27" height="27.999" viewBox="0 0 27 27.999">
  <g id="add_user_male" transform="translate(-3 -2.001)">
    <path id="Path_1" data-name="Path 1" d="M14,23a8.992,8.992,0,0,1,5.017-8.062,4.426,4.426,0,0,0,.855-1.89c.354-.027.91-.352,1.074-1.635a1.17,1.17,0,0,0-.474-1.2A5.292,5.292,0,0,0,21,8c0-2.428-.953-4.5-3-4.5A3.181,3.181,0,0,0,15,2C10.758,2,9,4.722,9,8a5.96,5.96,0,0,0,.528,2.214,1.171,1.171,0,0,0-.474,1.2c.164,1.283.72,1.608,1.074,1.635A5.223,5.223,0,0,0,12,16v2c-1,3-9,1-9,8H14.523A8.956,8.956,0,0,1,14,23Z" fill="#5e88fc"/>
    <path id="Path_2" data-name="Path 2" d="M23,16a7,7,0,1,0,7,7A7,7,0,0,0,23,16Zm3,8H24v2a1,1,0,0,1-2,0V24H20a1,1,0,0,1,0-2h2V20a1,1,0,0,1,2,0v2h2a1,1,0,0,1,0,2Z" fill="#5e88fc"/>
  </g>
</svg>
