<svg xmlns="http://www.w3.org/2000/svg" width="26" height="26" viewBox="0 0 26 26">
  <path id="cancel" d="M16,3A13,13,0,1,0,29,16,13,13,0,0,0,16,3Zm1.532,13L21.1,19.567A1.083,1.083,0,0,1,19.567,21.1C19.4,20.934,16,17.532,16,17.532L12.433,21.1A1.083,1.083,0,0,1,10.9,19.567C11.066,19.4,14.468,16,14.468,16L10.9,12.433A1.083,1.083,0,0,1,12.433,10.9C12.6,11.066,16,14.468,16,14.468L19.567,10.9A1.083,1.083,0,0,1,21.1,12.433C20.934,12.6,17.532,16,17.532,16Z" transform="translate(-3 -3)" fill="#e65101" opacity="0.75"/>
</svg>
