<svg xmlns="http://www.w3.org/2000/svg" width="70" height="76.364" viewBox="0 0 70 76.364">
  <g id="galka_2" data-name="galka 2" transform="translate(-4 -3)" opacity="0.75">
    <circle id="Ellipse_10" data-name="Ellipse 10" cx="6.371" cy="6.371" r="6.371" transform="translate(32.629 66.622)" fill="#d0c800"/>
    <circle id="Ellipse_11" data-name="Ellipse 11" cx="6.371" cy="6.371" r="6.371" transform="translate(61.259 6.185)" fill="#d0c800"/>
    <circle id="Ellipse_12" data-name="Ellipse 12" cx="6.371" cy="6.371" r="6.371" transform="translate(4 6.185)" fill="#d0c800"/>
    <path id="Path_7" data-name="Path 7" d="M68.909,6.182A169.494,169.494,0,0,0,39,3,169.494,169.494,0,0,0,9.091,6.182L4,12.545V31.636c0,33.09,31.818,46.772,31.818,46.772h6.364S74,64.726,74,31.636V12.545ZM39,61.226a4.773,4.773,0,1,1,4.773-4.773A4.893,4.893,0,0,1,39,61.226ZM43.773,43.09a4.773,4.773,0,0,1-9.545,0V17.636a4.773,4.773,0,0,1,9.545,0Z" transform="translate(0)" fill="#d0c800"/>
  </g>
</svg>
